HIERARCHY
ROOT joint_Root
{
	OFFSET 0.0 0.0 0.0
	CHANNELS 6 Xposition Yposition Zposition Zrotation Xrotation Yrotation 
	JOINT Hips
	{
		OFFSET -17.1583 93.1646 452.98
		CHANNELS 6 Xposition Yposition Zposition Zrotation Xrotation Yrotation 
		JOINT Spine
		{
			OFFSET 15.7357 0.0 0.0
			CHANNELS 6 Xposition Yposition Zposition Zrotation Xrotation Yrotation 
			JOINT Chest
			{
				OFFSET 8.98455 -0.406207 0.0
				CHANNELS 6 Xposition Yposition Zposition Zrotation Xrotation Yrotation 
				JOINT Neck
				{
					OFFSET 16.3773 0.0 0.0
					CHANNELS 6 Xposition Yposition Zposition Zrotation Xrotation Yrotation 
					JOINT Head
					{
						OFFSET 6.45672 0.0 0.0
						CHANNELS 6 Xposition Yposition Zposition Zrotation Xrotation Yrotation 
						End Site
						{
							OFFSET 0.0 0.0 0.0
						}
					}
				}
				JOINT Shoulder_L
				{
					OFFSET 12.9942 -0.242716 4.98039
					CHANNELS 6 Xposition Yposition Zposition Zrotation Xrotation Yrotation 
					JOINT UpperArm_L
					{
						OFFSET 5.34809 0.0 0.0
						CHANNELS 6 Xposition Yposition Zposition Zrotation Xrotation Yrotation 
						JOINT LowerArm_L
						{
							OFFSET 24.3286 1.87007e-05 0.0
							CHANNELS 6 Xposition Yposition Zposition Zrotation Xrotation Yrotation 
							JOINT Hand_L
							{
								OFFSET 22.2916 0.0 0.0
								CHANNELS 6 Xposition Yposition Zposition Zrotation Xrotation Yrotation 
								End Site
								{
									OFFSET 0.0 0.0 0.0
								}
							}
						}
					}
				}
				JOINT Shoulder_R
				{
					OFFSET 12.9945 -0.242716 -4.98039
					CHANNELS 6 Xposition Yposition Zposition Zrotation Xrotation Yrotation 
					JOINT UpperArm_R
					{
						OFFSET -5.34813 0.0 0.0
						CHANNELS 6 Xposition Yposition Zposition Zrotation Xrotation Yrotation 
						JOINT LowerArm_R
						{
							OFFSET -24.3289 0.000322201 0.0
							CHANNELS 6 Xposition Yposition Zposition Zrotation Xrotation Yrotation 
							JOINT Hand_R
							{
								OFFSET -22.2915 -0.000108084 0.0
								CHANNELS 6 Xposition Yposition Zposition Zrotation Xrotation Yrotation 
								End Site
								{
									OFFSET 0.0 0.0 0.0
								}
							}
						}
					}
				}
			}
		}
		JOINT UpperLeg_L
		{
			OFFSET -2.19248 -6.46944 0.0
			CHANNELS 6 Xposition Yposition Zposition Zrotation Xrotation Yrotation 
			JOINT LowerLeg_L
			{
				OFFSET 39.0811 0.0 -1.23785e-05
				CHANNELS 6 Xposition Yposition Zposition Zrotation Xrotation Yrotation 
				JOINT Foot_L
				{
					OFFSET 40.9854 0.0 -1.26872e-05
					CHANNELS 6 Xposition Yposition Zposition Zrotation Xrotation Yrotation 
					JOINT Toes_L
					{
						OFFSET 11.7543 0.0 0.0
						CHANNELS 6 Xposition Yposition Zposition Zrotation Xrotation Yrotation 
						End Site
						{
							OFFSET 0.0 0.0 0.0
						}
					}
				}
			}
		}
		JOINT UpperLeg_R
		{
			OFFSET -2.19251 6.46944 0.0
			CHANNELS 6 Xposition Yposition Zposition Zrotation Xrotation Yrotation 
			JOINT LowerLeg_R
			{
				OFFSET -39.0811 -0.00228153 -0.0401928
				CHANNELS 6 Xposition Yposition Zposition Zrotation Xrotation Yrotation 
				JOINT Foot_R
				{
					OFFSET -40.9854 0.0 0.0
					CHANNELS 6 Xposition Yposition Zposition Zrotation Xrotation Yrotation 
					JOINT Toes_R
					{
						OFFSET -11.7543 0.0 0.0
						CHANNELS 6 Xposition Yposition Zposition Zrotation Xrotation Yrotation 
						End Site
						{
							OFFSET 0.0 0.0 0.0
						}
					}
				}
			}
		}
	}
}
MOTION
Frames:	4
Frame Time:	0.0333333
0.000000 0.000000 0.000000 0.000000 0.000000 -0.000000 125.508000 92.409900 231.988000 -84.550400 48.937100 177.594000 15.735700 0.000005 -0.000001 73.427300 86.074600 -69.440200 8.984550 -0.406207 -0.000000 -0.140947 -2.513490 7.967510 16.377300 -0.000001 -0.000001 2.111660 13.513400 -2.153960 6.456720 -0.000001 -0.000000 4.769050 20.539200 -1.326690 12.994200 -0.242716 4.980390 -93.026200 8.264720 -69.808000 5.348090 -0.000007 -0.000001 -71.963600 16.084600 -5.125120 24.328600 0.000019 0.000005 24.651800 14.646600 -61.145000 22.291600 -0.000001 0.000005 -5.499190 5.163840 3.614310 12.994500 -0.242716 -4.980390 88.576600 4.280110 -71.584900 -5.348130 -0.000001 -0.000004 -66.564800 -4.045830 9.418000 -24.328900 0.000322 -0.000009 0.057001 21.022800 -0.161609 -22.291500 -0.000108 -0.000004 5.615820 4.830030 10.739200 -2.192480 -6.469440 -0.000000 173.803000 1.976340 1.942580 39.081100 -0.000007 -0.000012 -0.000276 0.001004 15.367000 40.985400 -0.000006 -0.000013 5.998980 14.281200 -63.670800 11.754300 -0.000000 0.000003 0.002468 0.091206 -12.878000 -2.192510 6.469440 -0.000001 172.774000 -2.537540 155.488000 -39.081100 -0.002282 -0.040193 0.045835 -0.034111 51.309600 -40.985400 0.000008 0.000006 -4.837260 -22.438600 -57.784900 -11.754300 -0.000006 -0.000006 0.000457 0.159580 -10.101200
0.000000 0.000000 0.000000 0.000000 0.000000 -0.000000 128.472000 92.879000 230.641000 -84.697700 44.629300 177.976000 15.735700 0.000005 -0.000001 68.499900 85.682700 -64.521300 8.984550 -0.406207 -0.000000 0.400475 -3.419040 7.965700 16.377300 -0.000001 -0.000001 1.049090 12.702000 -1.958600 6.456720 -0.000001 -0.000000 3.624380 19.692700 -0.866835 12.994200 -0.242716 4.980390 -92.797900 7.842840 -70.295100 5.348090 -0.000007 -0.000001 -70.387300 16.784400 -7.290290 24.328600 0.000019 0.000005 27.914600 10.790400 -70.537500 22.291600 -0.000001 0.000005 0.967847 5.228580 2.015400 12.994500 -0.242716 -4.980390 88.849200 3.423230 -71.406500 -5.348130 -0.000001 -0.000004 -65.392000 -9.953420 16.764500 -24.328900 0.000322 -0.000009 0.401278 21.207200 -1.112470 -22.291500 -0.000108 -0.000004 5.353630 4.785060 11.592000 -2.192480 -6.469440 -0.000000 174.468000 4.551320 6.331900 39.081100 -0.000007 -0.000012 -0.001529 0.007562 11.424100 40.985400 -0.000006 -0.000013 6.470700 15.013000 -61.993400 11.754300 -0.000000 0.000003 0.002384 0.066747 -13.869600 -2.192510 6.469440 -0.000001 171.826000 -3.981650 157.220000 -39.081100 -0.002282 -0.040193 0.022834 -0.024147 38.999000 -40.985400 0.000008 0.000006 -4.417590 -25.146800 -61.743000 -11.754300 -0.000006 -0.000006 0.000563 0.157581 -10.182400
0.000000 0.000000 0.000000 0.000000 0.000000 -0.000000 131.525000 92.866800 229.135000 -85.215100 41.753000 178.211000 15.735700 0.000005 -0.000001 65.462800 85.594000 -61.698000 8.984550 -0.406207 -0.000000 0.391490 -3.900380 7.540170 16.377300 -0.000001 -0.000001 0.533063 12.249200 -1.746460 6.456720 -0.000001 -0.000000 2.769720 19.189300 -0.497779 12.994200 -0.242716 4.980390 -92.565800 7.194730 -70.312700 5.348090 -0.000007 -0.000001 -69.203900 15.678500 -9.119610 24.328600 0.000019 0.000005 26.084800 6.984940 -76.055000 22.291600 -0.000001 0.000005 4.823660 5.329470 -0.764913 12.994500 -0.242716 -4.980390 89.116100 2.580890 -71.086800 -5.348130 -0.000001 -0.000004 -64.795800 -10.271600 22.905600 -24.328900 0.000322 -0.000009 0.589306 17.999600 -1.909940 -22.291500 -0.000108 -0.000004 1.328030 4.922980 8.896870 -2.192480 -6.469440 -0.000000 175.430000 3.837280 9.365510 39.081100 -0.000007 -0.000012 -0.001888 0.011451 9.357110 40.985400 -0.000006 -0.000013 7.001870 17.798000 -61.628200 11.754300 -0.000000 0.000003 0.001587 0.033368 -15.223200 -2.192510 6.469440 -0.000001 170.183000 -6.164330 158.821000 -39.081100 -0.002282 -0.040193 0.020266 -0.033078 27.142900 -40.985400 0.000008 0.000006 -4.901230 -19.571700 -64.421000 -11.754300 -0.000006 -0.000006 0.000517 0.158464 -10.146500
0.000000 0.000000 0.000000 0.000000 0.000000 -0.000000 134.714000 92.546100 227.599000 -85.415300 39.635200 177.987000 15.735700 0.000005 -0.000001 61.986800 85.621800 -58.398700 8.984550 -0.406207 -0.000000 0.112818 -4.350950 7.178700 16.377300 -0.000001 -0.000001 0.277091 12.074300 -1.557380 6.456720 -0.000001 -0.000000 2.425100 19.098200 -0.313397 12.994200 -0.242716 4.980390 -92.460700 6.905520 -70.332200 5.348090 -0.000007 -0.000001 -68.239400 13.346300 -10.458900 24.328600 0.000019 0.000005 18.902300 3.788150 -79.083000 22.291600 -0.000001 0.000005 5.826770 5.326880 -0.696065 12.994500 -0.242716 -4.980390 89.384400 1.776130 -70.880200 -5.348130 -0.000001 -0.000004 -64.952100 -8.459610 27.067300 -24.328900 0.000322 -0.000009 0.644446 16.569200 -2.262310 -22.291500 -0.000108 -0.000004 -3.077370 5.023610 6.810840 -2.192480 -6.469440 -0.000000 176.739000 3.742890 11.199200 39.081100 -0.000007 -0.000012 -0.002411 0.014815 9.242690 40.985400 -0.000006 -0.000013 7.040770 19.899900 -62.505100 11.754300 -0.000000 0.000003 0.000008 0.000141 -16.571800 -2.192510 6.469440 -0.000001 168.744000 -8.577380 159.716000 -39.081100 -0.002282 -0.040193 0.015209 -0.037422 17.617200 -40.985400 0.000008 0.000006 -7.872470 -11.237100 -66.270800 -11.754300 -0.000006 -0.000006 0.000425 0.160180 -10.076800
